<?xml version="1.0" encoding="utf-8"?>
<!-- Radio Tower icon by Arthur Shlain from Usefulicons.com -->
<svg xmlns="http://www.w3.org/2000/svg" xmlns:xlink="http://www.w3.org/1999/xlink" xml:space="preserve" version="1.1" x="0px" y="0px" viewBox="0 0 100 100" width="400px" height="400px"><g style="fill: #001f1e"><path d="M55.207,43.521C58.076,41.762,60,38.605,60,35C60,29.486,55.514,25,50,25S40,29.486,40,35C40,38.605,41.924,41.762,44.793,43.521L30.108,91.772C29.706,93.093,30.451,94.49,31.772,94.892C32.015,94.965,32.26,95,32.501,95C33.572,95,34.564,94.306,34.892,93.228L35.874,90L64.126,90L65.108,93.228C65.437,94.306,66.427,95,67.499,95C67.74,95,67.985,94.965,68.228,94.891C69.549,94.489,70.293,93.092,69.892,91.771L55.207,43.521ZM45.004,60L54.995,60L58.038,70L41.961,70L45.004,60ZM50,30C52.757,30,55,32.243,55,35S52.757,40,50,40S45,37.757,45,35S47.243,30,50,30ZM50,45C50.143,45,50.282,44.984,50.424,44.979L53.474,55L46.526,55L49.576,44.979C49.718,44.984,49.857,45,50,45ZM37.396,85L40.439,75L59.56,75L62.603,85L37.396,85Z" stroke="none"></path><path d="M64.305,45.373C64.678,45.57,65.077,45.664,65.472,45.664C66.368,45.664,67.236,45.18,67.684,44.332C69.199,41.466,70,38.239,70,35C70,23.972,61.028,15,50,15S30,23.972,30,35C30,38.239,30.801,41.466,32.316,44.332C32.962,45.554,34.475,46.02,35.694,45.374C36.915,44.729,37.381,43.216,36.736,41.996C35.584,39.815,35,37.462,35,35C35,26.729,41.729,20,50,20S65,26.729,65,35C65,37.462,64.416,39.815,63.264,41.995C62.618,43.215,63.084,44.728,64.305,45.373Z" stroke="none"></path><path d="M50,5C33.458,5,20,18.458,20,35C20,43.421,23.572,51.505,29.801,57.18C30.821,58.109,32.402,58.036,33.333,57.015C34.263,55.994,34.189,54.413,33.168,53.483C27.977,48.754,25,42.017,25,35C25,21.215,36.215,10,50,10S75,21.215,75,35C75,42.017,72.023,48.754,66.832,53.483C65.811,54.413,65.738,55.994,66.667,57.015C67.161,57.557,67.837,57.831,68.516,57.831C69.117,57.831,69.72,57.616,70.199,57.179C76.428,51.505,80,43.421,80,35C80,18.458,66.542,5,50,5Z" stroke="none"></path></g></svg>